<?xml version="1.0" encoding="UTF-8"?>
<svg xmlns="http://www.w3.org/2000/svg" width="1200" height="1800" viewBox="0 0 1200 1800">
  <style>
    .mono { font-family: 'Courier New', monospace; font-size:14px; fill:#222; }
    .title { font-size:18px; font-weight:700; }
    .folder { fill:#0b6; }
    .file { fill:#06c; }
    .bg { fill: #fff; }
    .line { stroke:#bbb; stroke-width:1.2; }
  </style>
  <rect x="0" y="0" width="1200" height="1800" class="bg"/>

  <!-- Title -->
  <text x="24" y="36" class="mono title">Repository folder structure — RentApp</text>

  <!-- Root files -->
  <text x="24" y="70" class="mono">angular.json</text>
  <text x="24" y="94" class="mono">package.json</text>
  <text x="24" y="118" class="mono">README.md</text>
  <text x="24" y="142" class="mono">tsconfig.app.json</text>
  <text x="24" y="166" class="mono">tsconfig.json</text>
  <text x="24" y="190" class="mono">tsconfig.spec.json</text>

  <!-- public/ -->
  <text x="24" y="230" class="mono">public/</text>
  <line x1="24" y1="234" x2="36" y2="234" class="line"/>
  <text x="56" y="258" class="mono">favicon.ico</text>

  <!-- src/ -->
  <text x="24" y="300" class="mono">src/</text>
  <line x1="24" y1="304" x2="36" y2="304" class="line"/>
  <text x="56" y="328" class="mono">index.html</text>
  <text x="56" y="352" class="mono">main.ts</text>
  <text x="56" y="376" class="mono">material-theme.scss</text>
  <text x="56" y="400" class="mono">styles.css</text>

  <!-- src/app/ -->
  <text x="56" y="440" class="mono">app/</text>
  <line x1="56" y1="444" x2="68" y2="444" class="line"/>
  <text x="80" y="468" class="mono">app.config.ts</text>
  <text x="80" y="492" class="mono">app.css</text>
  <text x="80" y="516" class="mono">app.html</text>
  <text x="80" y="540" class="mono">app.routes.ts</text>
  <text x="80" y="564" class="mono">app.spec.ts</text>
  <text x="80" y="588" class="mono">app.ts</text>

  <!-- src/app/core/ -->
  <text x="80" y="628" class="mono">core/</text>
  <line x1="80" y1="632" x2="92" y2="632" class="line"/>

  <text x="104" y="656" class="mono">guards/</text>
  <line x1="104" y1="660" x2="116" y2="660" class="line"/>
  <text x="128" y="684" class="mono">auth.guard.ts</text>

  <text x="104" y="724" class="mono">interceptors/</text>
  <line x1="104" y1="728" x2="116" y2="728" class="line"/>
  <text x="128" y="752" class="mono">auth.ts</text>

  <text x="104" y="792" class="mono">services/</text>
  <line x1="104" y1="796" x2="116" y2="796" class="line"/>
  <text x="128" y="820" class="mono">auth.service.ts</text>
  <text x="128" y="844" class="mono">auth.spec.ts</text>
  <text x="128" y="868" class="mono">comment.ts</text>
  <text x="128" y="892" class="mono">listing.ts</text>
  <text x="128" y="916" class="mono">seed.service.ts</text>

  <!-- src/app/features/ -->
  <text x="80" y="956" class="mono">features/</text>
  <line x1="80" y1="960" x2="92" y2="960" class="line"/>

  <!-- features/auth -->
  <text x="104" y="984" class="mono">auth/</text>
  <line x1="104" y1="988" x2="116" y2="988" class="line"/>
  <text x="128" y="1012" class="mono">login.html</text>
  <text x="128" y="1036" class="mono">login.scss</text>
  <text x="128" y="1060" class="mono">login.ts</text>
  <text x="128" y="1084" class="mono">signup.html</text>
  <text x="128" y="1108" class="mono">signup.scss</text>
  <text x="128" y="1132" class="mono">signup.ts</text>

  <!-- features/home -->
  <text x="104" y="1168" class="mono">home/</text>
  <line x1="104" y1="1172" x2="116" y2="1172" class="line"/>
  <text x="128" y="1196" class="mono">home.html</text>
  <text x="128" y="1220" class="mono">home.scss</text>
  <text x="128" y="1244" class="mono">home.spec.ts</text>
  <text x="128" y="1268" class="mono">home.ts</text>

  <!-- features/listing-create -->
  <text x="104" y="1308" class="mono">listing-create/</text>
  <line x1="104" y1="1312" x2="116" y2="1312" class="line"/>
  <text x="128" y="1336" class="mono">listing-create.html</text>
  <text x="128" y="1360" class="mono">listing-create.scss</text>
  <text x="128" y="1384" class="mono">listing-create.spec.ts</text>
  <text x="128" y="1408" class="mono">listing-create.ts</text>

  <!-- features/listing-detail -->
  <text x="104" y="1448" class="mono">listing-detail/</text>
  <line x1="104" y1="1452" x2="116" y2="1452" class="line"/>
  <text x="128" y="1476" class="mono">listing-detail.html</text>
  <text x="128" y="1500" class="mono">listing-detail.scss</text>
  <text x="128" y="1524" class="mono">listing-detail.spec.ts</text>
  <text x="128" y="1548" class="mono">listing-detail.ts</text>

  <!-- features/preview -->
  <text x="104" y="1588" class="mono">preview/</text>
  <line x1="104" y1="1592" x2="116" y2="1592" class="line"/>
  <text x="128" y="1616" class="mono">listing-preview.html</text>
  <text x="128" y="1640" class="mono">listing-preview.scss</text>
  <text x="128" y="1664" class="mono">listing-preview.ts</text>

  <!-- src/app/shared/ -->
  <text x="56" y="1706" class="mono">shared/</text>
  <line x1="56" y1="1710" x2="68" y2="1710" class="line"/>
  <text x="80" y="1734" class="mono">components/</text>
  <text x="104" y="1758" class="mono">navbar.html</text>
  <text x="104" y="1782" class="mono">navbar.scss</text>
  <text x="104" y="1806" class="mono">navbar.ts</text>

  <!-- note: models are omitted from vertical layout to keep diagram compact; listed below -->
  <text x="700" y="320" class="mono">Also present under src/app/shared/models/</text>
  <text x="700" y="344" class="mono">- comment.ts</text>
  <text x="700" y="368" class="mono">- user.ts</text>

  <!-- footer note -->
  <text x="24" y="1762" class="mono">Generated: folder-structure.svg</text>
</svg>
